<mxfile host="app.diagrams.net" modified="2022-04-15T03:56:18.680Z" agent="5.0 (Windows NT 10.0; Win64; x64) AppleWebKit/537.36 (KHTML, like Gecko) Chrome/100.0.4896.75 Safari/537.36 Edg/100.0.1185.39" etag="HG_5Y-KlGtUdcFRfHLNK" version="17.4.4" type="github">
  <diagram name="Page-1" id="0783ab3e-0a74-02c8-0abd-f7b4e66b4bec">
    <mxGraphModel dx="1493" dy="993" grid="1" gridSize="10" guides="1" tooltips="1" connect="1" arrows="1" fold="1" page="1" pageScale="1" pageWidth="850" pageHeight="1100" background="none" math="0" shadow="0">
      <root>
        <mxCell id="0" />
        <mxCell id="1" parent="0" />
        <mxCell id="1c1d494c118603dd-1" value="售后" style="swimlane;html=1;childLayout=stackLayout;startSize=20;rounded=0;shadow=0;comic=0;labelBackgroundColor=none;strokeWidth=1;fontFamily=Verdana;fontSize=12;align=center;" parent="1" vertex="1">
          <mxGeometry x="110" y="10" width="810" height="900" as="geometry" />
        </mxCell>
        <mxCell id="1c1d494c118603dd-3" value="工单" style="swimlane;html=1;startSize=20;" parent="1c1d494c118603dd-1" vertex="1">
          <mxGeometry y="20" width="420" height="880" as="geometry" />
        </mxCell>
        <mxCell id="8FH2sGpFVhMyI4E6GsUj-4" value="" style="edgeStyle=orthogonalEdgeStyle;rounded=0;orthogonalLoop=1;jettySize=auto;html=1;" edge="1" parent="1c1d494c118603dd-3" source="8FH2sGpFVhMyI4E6GsUj-1" target="8FH2sGpFVhMyI4E6GsUj-2">
          <mxGeometry relative="1" as="geometry" />
        </mxCell>
        <mxCell id="8FH2sGpFVhMyI4E6GsUj-1" value="工单" style="ellipse;whiteSpace=wrap;html=1;aspect=fixed;" vertex="1" parent="1c1d494c118603dd-3">
          <mxGeometry x="195" y="30" width="50" height="50" as="geometry" />
        </mxCell>
        <mxCell id="8FH2sGpFVhMyI4E6GsUj-2" value="创建工单：&lt;br&gt;1，包含客户信息。&lt;br&gt;2，包含工单类型。&lt;br&gt;3，包含商品信息。" style="rounded=1;whiteSpace=wrap;html=1;" vertex="1" parent="1c1d494c118603dd-3">
          <mxGeometry x="160" y="115" width="120" height="90" as="geometry" />
        </mxCell>
        <mxCell id="8FH2sGpFVhMyI4E6GsUj-14" value="" style="edgeStyle=orthogonalEdgeStyle;rounded=0;orthogonalLoop=1;jettySize=auto;html=1;" edge="1" parent="1c1d494c118603dd-3" source="8FH2sGpFVhMyI4E6GsUj-11">
          <mxGeometry relative="1" as="geometry">
            <mxPoint x="220" y="460" as="targetPoint" />
          </mxGeometry>
        </mxCell>
        <mxCell id="8FH2sGpFVhMyI4E6GsUj-11" value="处理完成，反馈用户" style="whiteSpace=wrap;html=1;rounded=1;" vertex="1" parent="1c1d494c118603dd-3">
          <mxGeometry x="160" y="320" width="120" height="60" as="geometry" />
        </mxCell>
        <mxCell id="8FH2sGpFVhMyI4E6GsUj-17" value="" style="edgeStyle=orthogonalEdgeStyle;rounded=0;orthogonalLoop=1;jettySize=auto;html=1;entryX=0.5;entryY=0;entryDx=0;entryDy=0;startArrow=none;exitX=0.5;exitY=1;exitDx=0;exitDy=0;" edge="1" parent="1c1d494c118603dd-3" source="8FH2sGpFVhMyI4E6GsUj-15">
          <mxGeometry relative="1" as="geometry">
            <mxPoint x="300" y="640" as="sourcePoint" />
            <mxPoint x="220" y="690" as="targetPoint" />
          </mxGeometry>
        </mxCell>
        <mxCell id="8FH2sGpFVhMyI4E6GsUj-26" value="是" style="edgeLabel;html=1;align=center;verticalAlign=middle;resizable=0;points=[];" vertex="1" connectable="0" parent="8FH2sGpFVhMyI4E6GsUj-17">
          <mxGeometry x="-0.3167" y="1" relative="1" as="geometry">
            <mxPoint as="offset" />
          </mxGeometry>
        </mxCell>
        <mxCell id="8FH2sGpFVhMyI4E6GsUj-15" value="&lt;span&gt;用户是否接受？&lt;/span&gt;" style="rhombus;whiteSpace=wrap;html=1;" vertex="1" parent="1c1d494c118603dd-3">
          <mxGeometry x="160" y="460" width="120" height="110" as="geometry" />
        </mxCell>
        <mxCell id="8FH2sGpFVhMyI4E6GsUj-27" value="结束，生成历史记录" style="ellipse;whiteSpace=wrap;html=1;aspect=fixed;" vertex="1" parent="1c1d494c118603dd-3">
          <mxGeometry x="185" y="690" width="70" height="70" as="geometry" />
        </mxCell>
        <mxCell id="1c1d494c118603dd-2" value="流程中心" style="swimlane;html=1;startSize=20;" parent="1c1d494c118603dd-1" vertex="1">
          <mxGeometry x="420" y="20" width="390" height="880" as="geometry" />
        </mxCell>
        <mxCell id="8FH2sGpFVhMyI4E6GsUj-8" value="" style="edgeStyle=orthogonalEdgeStyle;rounded=0;orthogonalLoop=1;jettySize=auto;html=1;" edge="1" parent="1c1d494c118603dd-2" source="8FH2sGpFVhMyI4E6GsUj-6" target="8FH2sGpFVhMyI4E6GsUj-7">
          <mxGeometry relative="1" as="geometry" />
        </mxCell>
        <mxCell id="8FH2sGpFVhMyI4E6GsUj-6" value="自动分发工单" style="rounded=1;whiteSpace=wrap;html=1;" vertex="1" parent="1c1d494c118603dd-2">
          <mxGeometry x="40" y="130" width="120" height="60" as="geometry" />
        </mxCell>
        <mxCell id="8FH2sGpFVhMyI4E6GsUj-10" value="" style="edgeStyle=orthogonalEdgeStyle;rounded=0;orthogonalLoop=1;jettySize=auto;html=1;" edge="1" parent="1c1d494c118603dd-2" source="8FH2sGpFVhMyI4E6GsUj-7" target="8FH2sGpFVhMyI4E6GsUj-9">
          <mxGeometry relative="1" as="geometry" />
        </mxCell>
        <mxCell id="8FH2sGpFVhMyI4E6GsUj-7" value="根据流程设定生成流程实例" style="whiteSpace=wrap;html=1;rounded=1;" vertex="1" parent="1c1d494c118603dd-2">
          <mxGeometry x="40" y="230" width="120" height="60" as="geometry" />
        </mxCell>
        <mxCell id="8FH2sGpFVhMyI4E6GsUj-9" value="流转处理流程" style="whiteSpace=wrap;html=1;rounded=1;" vertex="1" parent="1c1d494c118603dd-2">
          <mxGeometry x="40" y="320" width="120" height="60" as="geometry" />
        </mxCell>
        <mxCell id="8FH2sGpFVhMyI4E6GsUj-30" value="" style="edgeStyle=orthogonalEdgeStyle;rounded=0;orthogonalLoop=1;jettySize=auto;html=1;entryX=0.5;entryY=1;entryDx=0;entryDy=0;" edge="1" parent="1c1d494c118603dd-2" source="8FH2sGpFVhMyI4E6GsUj-28" target="8FH2sGpFVhMyI4E6GsUj-38">
          <mxGeometry relative="1" as="geometry">
            <mxPoint x="240" y="350" as="targetPoint" />
          </mxGeometry>
        </mxCell>
        <mxCell id="8FH2sGpFVhMyI4E6GsUj-28" value="&lt;span&gt;返回至最后处理的一位用户&lt;/span&gt;" style="rounded=1;whiteSpace=wrap;html=1;" vertex="1" parent="1c1d494c118603dd-2">
          <mxGeometry x="40" y="490" width="120" height="60" as="geometry" />
        </mxCell>
        <mxCell id="8FH2sGpFVhMyI4E6GsUj-34" value="" style="curved=1;endArrow=classic;html=1;rounded=0;" edge="1" parent="1c1d494c118603dd-2" target="8FH2sGpFVhMyI4E6GsUj-35">
          <mxGeometry width="50" height="50" relative="1" as="geometry">
            <mxPoint x="160" y="350" as="sourcePoint" />
            <mxPoint x="220" y="180" as="targetPoint" />
            <Array as="points">
              <mxPoint x="220" y="320" />
              <mxPoint x="240" y="250" />
            </Array>
          </mxGeometry>
        </mxCell>
        <mxCell id="8FH2sGpFVhMyI4E6GsUj-39" value="" style="edgeStyle=orthogonalEdgeStyle;rounded=0;orthogonalLoop=1;jettySize=auto;html=1;" edge="1" parent="1c1d494c118603dd-2" source="8FH2sGpFVhMyI4E6GsUj-38" target="8FH2sGpFVhMyI4E6GsUj-9">
          <mxGeometry relative="1" as="geometry" />
        </mxCell>
        <mxCell id="8FH2sGpFVhMyI4E6GsUj-38" value="最后处理的审批人进行处理" style="rounded=1;whiteSpace=wrap;html=1;" vertex="1" parent="1c1d494c118603dd-2">
          <mxGeometry x="40" y="400" width="120" height="60" as="geometry" />
        </mxCell>
        <mxCell id="8FH2sGpFVhMyI4E6GsUj-5" style="edgeStyle=orthogonalEdgeStyle;rounded=0;orthogonalLoop=1;jettySize=auto;html=1;entryX=0;entryY=0.5;entryDx=0;entryDy=0;" edge="1" parent="1c1d494c118603dd-1" source="8FH2sGpFVhMyI4E6GsUj-2" target="8FH2sGpFVhMyI4E6GsUj-6">
          <mxGeometry relative="1" as="geometry">
            <mxPoint x="490" y="180" as="targetPoint" />
            <Array as="points" />
          </mxGeometry>
        </mxCell>
        <mxCell id="8FH2sGpFVhMyI4E6GsUj-12" value="" style="edgeStyle=orthogonalEdgeStyle;rounded=0;orthogonalLoop=1;jettySize=auto;html=1;" edge="1" parent="1c1d494c118603dd-1" source="8FH2sGpFVhMyI4E6GsUj-9" target="8FH2sGpFVhMyI4E6GsUj-11">
          <mxGeometry relative="1" as="geometry" />
        </mxCell>
        <mxCell id="8FH2sGpFVhMyI4E6GsUj-21" value="" style="edgeStyle=orthogonalEdgeStyle;rounded=0;orthogonalLoop=1;jettySize=auto;html=1;" edge="1" parent="1c1d494c118603dd-1" source="8FH2sGpFVhMyI4E6GsUj-15">
          <mxGeometry relative="1" as="geometry">
            <mxPoint x="460" y="535" as="targetPoint" />
          </mxGeometry>
        </mxCell>
        <mxCell id="8FH2sGpFVhMyI4E6GsUj-22" value="否" style="edgeLabel;html=1;align=center;verticalAlign=middle;resizable=0;points=[];" vertex="1" connectable="0" parent="8FH2sGpFVhMyI4E6GsUj-21">
          <mxGeometry x="-0.2231" relative="1" as="geometry">
            <mxPoint as="offset" />
          </mxGeometry>
        </mxCell>
        <mxCell id="8FH2sGpFVhMyI4E6GsUj-35" value="流程处理" style="swimlane;" vertex="1" parent="1">
          <mxGeometry x="980" y="10" width="200" height="440" as="geometry" />
        </mxCell>
        <mxCell id="8FH2sGpFVhMyI4E6GsUj-41" value="" style="edgeStyle=orthogonalEdgeStyle;rounded=0;orthogonalLoop=1;jettySize=auto;html=1;" edge="1" parent="8FH2sGpFVhMyI4E6GsUj-35" source="8FH2sGpFVhMyI4E6GsUj-37" target="8FH2sGpFVhMyI4E6GsUj-40">
          <mxGeometry relative="1" as="geometry" />
        </mxCell>
        <mxCell id="8FH2sGpFVhMyI4E6GsUj-37" value="创建实例" style="rounded=1;whiteSpace=wrap;html=1;" vertex="1" parent="8FH2sGpFVhMyI4E6GsUj-35">
          <mxGeometry x="40" y="50" width="120" height="60" as="geometry" />
        </mxCell>
        <mxCell id="8FH2sGpFVhMyI4E6GsUj-43" value="" style="edgeStyle=orthogonalEdgeStyle;rounded=0;orthogonalLoop=1;jettySize=auto;html=1;" edge="1" parent="8FH2sGpFVhMyI4E6GsUj-35" source="8FH2sGpFVhMyI4E6GsUj-40" target="8FH2sGpFVhMyI4E6GsUj-42">
          <mxGeometry relative="1" as="geometry" />
        </mxCell>
        <mxCell id="8FH2sGpFVhMyI4E6GsUj-40" value="用户流转审批" style="whiteSpace=wrap;html=1;rounded=1;" vertex="1" parent="8FH2sGpFVhMyI4E6GsUj-35">
          <mxGeometry x="40" y="190" width="120" height="60" as="geometry" />
        </mxCell>
        <mxCell id="8FH2sGpFVhMyI4E6GsUj-42" value="流转完毕" style="whiteSpace=wrap;html=1;rounded=1;" vertex="1" parent="8FH2sGpFVhMyI4E6GsUj-35">
          <mxGeometry x="40" y="330" width="120" height="60" as="geometry" />
        </mxCell>
      </root>
    </mxGraphModel>
  </diagram>
</mxfile>
